<svg width="300" height="300" viewBox="0 0 300 300" fill="none" xmlns="http://www.w3.org/2000/svg">
<circle cx="150" cy="150" r="150" fill="white"/>
<path fill-rule="evenodd" clip-rule="evenodd" d="M47.1281 169.728C67.0648 147.931 99.6091 134.412 120.666 133.747C146.565 132.95 161.831 147.836 162.476 168.494C162.837 180.608 159.685 191.184 146.432 205.462C135.343 218.146 130.217 220.443 129.172 220.5C128.033 220.538 127.596 219.931 127.577 219.152C127.54 218.393 127.672 217.614 127.938 217.386C129.21 216.209 130.274 214.918 131.47 213.532C135.97 208.538 136.464 207.874 139.141 203.146C144.115 194.07 145.521 188.241 145.293 181.007C144.59 158.26 126.742 142.538 104.717 143.241C76.8813 144.114 43.3686 178.861 44.7927 224.64C45.0015 231.057 45.818 236.905 47.1471 242.241C70.1977 267.703 102.628 284.507 138.97 287.26C165.913 278.165 185.736 253.424 184.634 218.07C184.331 208.785 183.059 200.26 180.21 191.051L170.793 159.551C164.394 137.469 162.799 125.374 162.495 115.443C161.489 83.2789 172.9 60.0953 193.9 42.1523C200.793 36.3991 208.141 31.8042 215.812 28.3105C196.141 17.5257 173.565 11.3928 149.527 11.3928C73.2357 11.3928 11.3939 73.2536 11.3939 149.526C11.3939 170.545 16.1028 190.481 24.5142 208.311C28.6344 194.336 36.2104 181.405 47.0711 169.728H47.1281Z" fill="#003B7A"/>
<path fill-rule="evenodd" clip-rule="evenodd" d="M249.664 115.672C246.968 115.748 244.139 115.444 242.297 115.159C241.784 115.178 240.683 114.761 240.645 113.906C240.626 113.223 241.348 112.767 242.335 112.729L244.727 112.672C255.436 112.33 268.044 103.539 273.683 88.8238C262.272 65.5833 244.537 46.0074 222.702 32.3555C206.923 40.2352 194.677 57.4377 195.246 75.7036C195.512 84.7415 199.082 101.621 205.499 115.311L216.36 139.615C228.854 166.178 230.696 180.874 231.056 192.836C232.613 242.735 197.145 266.261 185.696 274.007C177.797 279.229 169.158 283.691 160.063 287.299C231.474 281.944 287.753 222.343 287.753 149.564C287.753 133.767 285.094 118.596 280.196 104.45C271.879 111.324 261.246 115.33 249.683 115.691L249.664 115.672Z" fill="#003B7A"/>
</svg>
